<?xml version="1.0"?>
<svg xmlns="http://www.w3.org/2000/svg" xmlns:xlink="http://www.w3.org/1999/xlink" xmlns:svgjs="http://svgjs.com/svgjs" version="1.1" width="512" height="512" x="0" y="0" viewBox="0 0 24 24" style="enable-background:new 0 0 512 512" xml:space="preserve" class=""><g><path xmlns="http://www.w3.org/2000/svg" d="m12 0c-6.617 0-12 5.383-12 12s5.383 12 12 12 12-5.383 12-12-5.383-12-12-12z" fill="#efb764" data-original="#607d8b" style="" class=""/><g xmlns="http://www.w3.org/2000/svg" fill="#fafafa"><path d="m16 17h-8c-.552 0-1-.448-1-1s.448-1 1-1h8c.552 0 1 .448 1 1s-.448 1-1 1z" fill="#f7f7f7" data-original="#fafafa" style="" class=""/><path d="m16 13h-8c-.552 0-1-.448-1-1s.448-1 1-1h8c.552 0 1 .448 1 1s-.448 1-1 1z" fill="#f7f7f7" data-original="#fafafa" style="" class=""/><path d="m16 9h-8c-.552 0-1-.448-1-1s.448-1 1-1h8c.552 0 1 .448 1 1s-.448 1-1 1z" fill="#f7f7f7" data-original="#fafafa" style="" class=""/></g><path xmlns="http://www.w3.org/2000/svg" d="m12 0c-6.617 0-12 5.383-12 12s5.383 12 12 12v-7h-4c-.552 0-1-.448-1-1s.448-1 1-1h4v-2h-4c-.552 0-1-.448-1-1s.448-1 1-1h4v-2h-4c-.552 0-1-.448-1-1s.448-1 1-1h4z" fill="#f2612d" data-original="#546d79" style="" class=""/><g xmlns="http://www.w3.org/2000/svg" fill="#dadada"><path d="m12 15h-4c-.552 0-1 .448-1 1s.448 1 1 1h4z" fill="#c9c9c9" data-original="#dadada" style="" class=""/><path d="m12 11h-4c-.552 0-1 .448-1 1s.448 1 1 1h4z" fill="#c9c9c9" data-original="#dadada" style="" class=""/><path d="m12 7h-4c-.552 0-1 .448-1 1s.448 1 1 1h4z" fill="#c9c9c9" data-original="#dadada" style="" class=""/></g></g></svg>
